# xmcd CD database file
#
# Track frame offsets:
#	150
#	14397
#	36707
#	50872
#
# Disc length: 979 seconds
#
# Revision: 2
# Processed by: cddbd v1.5.1PL0 Copyright (c) Steve Scherf et al.
# Submitted via: CDex 1.51
#
DISCID=3703d104
DTITLE=Dolores Nervosa - Dolores Nervosa
DYEAR=1998
DGENRE=Blues
TTITLE0=Nada
TTITLE1=Tudo Bom, Tudo Bem
TTITLE2=Tempo
TTITLE3=Selvagem Prazer
EXTD=YEAR: 1998
EXTT0=
EXTT1=
EXTT2=
EXTT3=
PLAYORDER=
